<?xml version="1.0" standalone="no"?>
<!DOCTYPE svg PUBLIC "-//W3C//DTD SVG 20010904//EN"
 "http://www.w3.org/TR/2001/REC-SVG-20010904/DTD/svg10.dtd">
<svg version="1.0" xmlns="http://www.w3.org/2000/svg"
 width="1024.000000pt" height="1024.000000pt" viewBox="0 0 1024.000000 1024.000000"
 preserveAspectRatio="xMidYMid meet">

<g transform="translate(0.000000,1024.000000) scale(0.100000,-0.100000)"
fill="#000000" stroke="none">
<path d="M6974 9527 c-33 -29 -40 -71 -50 -318 l-7 -167 26 -26 c26 -26 82
-35 122 -20 43 17 62 141 61 402 -1 107 -2 115 -25 133 -33 27 -93 25 -127 -4z"/>
<path d="M5959 9391 c-27 -28 -31 -37 -26 -70 5 -40 61 -179 128 -318 41 -84
64 -103 124 -103 60 0 98 75 74 147 -20 61 -147 336 -163 351 -8 8 -34 17 -59
19 -42 5 -49 2 -78 -26z"/>
<path d="M7965 9356 c-33 -33 -215 -400 -215 -433 0 -16 9 -42 20 -60 30 -49
105 -56 154 -14 10 9 61 101 112 204 108 216 115 248 65 298 -39 38 -100 41
-136 5z"/>
<path d="M4110 9265 c-138 -21 -382 -65 -420 -75 -54 -15 -550 -120 -685 -145
-66 -13 -183 -37 -260 -54 -77 -16 -252 -53 -390 -81 -137 -28 -297 -62 -355
-75 -58 -13 -172 -38 -255 -55 -217 -44 -617 -155 -689 -192 -200 -102 -308
-283 -292 -489 7 -92 52 -388 111 -729 99 -569 199 -1142 225 -1285 16 -88 41
-227 55 -310 15 -82 48 -267 75 -410 27 -143 72 -381 99 -530 28 -148 59 -313
70 -365 11 -52 29 -144 41 -205 55 -275 118 -383 271 -455 91 -43 160 -46 325
-15 76 14 177 33 224 41 47 8 114 22 150 29 91 21 362 65 394 65 28 0 187 -80
302 -151 185 -114 231 -139 257 -139 83 0 121 89 61 141 -21 18 -175 109 -272
160 -59 30 -62 33 -40 42 21 8 1590 327 1700 346 45 8 47 7 43 -13 -12 -46
-66 -313 -106 -516 -23 -118 -43 -216 -44 -218 -1 -1 -27 13 -57 31 -131 79
-338 138 -553 158 -261 25 -401 -14 -393 -108 5 -62 31 -72 188 -78 374 -13
605 -75 785 -210 70 -53 94 -55 180 -19 111 46 183 64 317 78 159 17 298 9
493 -29 141 -28 151 -30 455 -103 113 -28 250 -59 305 -71 55 -12 118 -26 140
-31 181 -42 446 -58 534 -32 61 19 84 47 114 138 55 165 271 1130 347 1544 7
36 16 82 21 102 l9 37 45 -20 c55 -24 106 -18 140 19 28 30 38 94 63 396 19
232 16 224 93 225 106 2 403 69 626 142 129 41 167 45 288 29 103 -13 216 15
323 81 92 56 147 115 196 209 64 123 69 233 14 296 -27 31 -29 37 -19 65 47
134 -55 259 -211 259 -30 0 -38 4 -38 18 0 35 -59 103 -107 124 -62 27 -178
22 -243 -12 -92 -47 -210 -164 -256 -252 -8 -15 -28 -34 -44 -43 -64 -33 -260
-84 -260 -68 0 2 10 14 21 26 38 39 129 184 164 261 108 236 152 526 120 781
-25 207 -67 341 -161 525 -172 333 -481 597 -849 724 -214 73 -258 80 -495 81
-190 0 -227 -3 -319 -23 -305 -68 -565 -213 -786 -437 -198 -200 -327 -428
-401 -710 -40 -149 -55 -404 -33 -564 6 -45 9 -85 6 -87 -6 -7 -79 38 -135 83
-53 43 -64 65 -91 183 -27 122 -67 192 -128 228 -84 50 -80 41 -123 252 -61
301 -137 664 -184 883 -58 266 -99 362 -194 456 -128 125 -303 177 -502 146z
m301 -242 c109 -59 142 -132 229 -513 66 -288 190 -903 184 -909 -3 -3 -28
-17 -56 -31 -36 -17 -57 -36 -70 -60 -10 -19 -35 -46 -55 -60 -81 -56 -92 -79
-154 -325 -36 -140 72 -294 274 -396 106 -52 209 -125 228 -161 18 -34 45
-158 89 -413 22 -132 48 -276 56 -320 69 -382 96 -589 92 -692 -4 -74 -8 -87
-41 -137 -21 -31 -56 -70 -79 -86 -61 -44 -114 -58 -538 -141 -641 -124 -1133
-221 -1190 -234 -52 -12 -526 -104 -795 -155 -27 -6 -111 -22 -185 -36 -140
-28 -187 -37 -256 -49 l-40 -7 -28 159 c-15 87 -36 203 -46 258 -11 55 -37
192 -59 305 -22 113 -58 309 -81 435 -23 127 -52 286 -65 355 -14 69 -31 168
-40 220 -9 52 -24 140 -35 195 -11 55 -45 237 -75 405 -31 168 -67 366 -81
440 -14 74 -39 209 -54 300 -16 91 -50 275 -75 410 -25 135 -61 335 -80 445
-19 110 -37 210 -41 222 -5 19 0 23 48 36 245 66 211 58 843 188 215 44 455
93 535 109 80 16 240 50 355 75 116 25 257 55 315 66 58 11 220 42 360 69 217
41 354 65 420 74 45 5 146 -16 191 -41z m2855 -397 c173 -38 398 -136 514
-225 215 -164 367 -365 469 -623 62 -155 91 -386 71 -556 -55 -463 -304 -821
-721 -1034 -192 -99 -363 -138 -605 -138 -301 0 -557 74 -794 229 -106 69
-279 240 -345 341 -51 79 -123 224 -149 302 -28 86 -56 243 -62 359 -14 259
78 570 234 788 141 198 311 345 507 440 111 54 234 95 340 114 50 9 99 19 110
21 43 10 362 -3 431 -18z m-6067 -418 c18 -106 62 -353 97 -548 36 -195 74
-407 85 -470 35 -197 55 -306 107 -590 28 -151 67 -367 87 -480 91 -520 313
-1689 351 -1855 4 -17 -4 -24 -47 -39 -35 -13 -74 -40 -121 -84 -38 -36 -70
-63 -73 -61 -26 27 -137 587 -341 1724 -19 105 -45 244 -58 310 -14 66 -46
239 -71 385 -25 146 -61 348 -80 450 -72 395 -168 961 -181 1079 -13 109 -13
129 0 175 20 68 66 130 123 166 86 55 85 57 122 -162z m3759 -792 c61 -32 91
-84 123 -212 12 -49 30 -105 40 -125 30 -59 129 -140 289 -235 l150 -89 57
-108 c32 -60 89 -150 126 -199 38 -49 66 -92 64 -94 -15 -15 -413 173 -532
250 -44 29 -125 91 -180 139 -62 54 -117 93 -145 103 -25 9 -82 34 -127 55
-88 42 -163 113 -163 154 0 24 2 24 91 0 20 -5 33 -1 54 18 41 35 29 71 -33
99 -26 11 -57 26 -69 31 -26 12 -29 35 -9 62 14 19 16 19 76 3 41 -11 70 -14
85 -8 39 15 47 66 15 95 -56 51 14 99 88 61z m3988 -760 c19 -15 18 -16 -8
-64 -33 -60 -35 -81 -8 -115 33 -42 54 -42 130 -3 85 44 125 47 142 10 11 -23
10 -29 -12 -46 -13 -10 -37 -22 -52 -25 -58 -12 -76 -76 -32 -120 23 -23 31
-25 80 -19 53 6 54 5 54 -19 0 -63 -96 -188 -182 -239 -77 -45 -122 -51 -260
-37 l-123 13 -98 -36 c-212 -77 -497 -144 -712 -166 -149 -16 -148 -16 -171
-47 -19 -25 -22 -53 -33 -243 -7 -118 -15 -236 -19 -262 l-7 -47 -70 55 c-148
116 -438 262 -652 328 -281 87 -498 120 -805 121 l-217 0 4 35 c22 160 67 456
71 459 2 2 36 -19 76 -46 199 -136 442 -230 693 -268 146 -22 405 -20 547 4
247 43 484 145 669 288 64 49 140 83 188 83 32 0 251 53 341 82 117 38 131 48
182 139 47 85 109 154 163 182 38 20 95 21 121 3z m-3348 -427 c85 -37 158
-71 163 -76 10 -10 -47 -463 -59 -474 -4 -3 -54 -12 -112 -18 -58 -7 -131 -17
-162 -23 -32 -7 -59 -10 -62 -7 -2 2 -20 100 -40 218 -40 235 -92 501 -105
542 -9 26 -5 24 107 -34 65 -34 186 -91 270 -128z m812 -739 c360 -53 740
-188 938 -334 50 -37 62 -51 62 -73 0 -82 -238 -1213 -333 -1587 -36 -139 -39
-141 -180 -140 -147 2 -325 37 -817 158 -162 40 -250 61 -435 100 -232 49
-482 42 -659 -19 -55 -19 -102 -33 -104 -30 -8 8 48 279 122 592 25 106 46
202 46 212 0 11 22 38 51 63 98 82 159 197 159 298 0 38 6 54 33 86 132 157
160 308 111 590 l-6 32 69 15 c57 14 230 35 413 51 81 7 453 -3 530 -14z
m-1350 -820 c0 -13 -78 -98 -101 -111 -18 -9 -268 -62 -594 -124 -104 -20
-287 -56 -405 -80 -118 -24 -264 -53 -325 -65 -60 -11 -150 -30 -200 -40 -116
-25 -595 -119 -660 -130 -27 -5 -158 -29 -290 -54 -491 -93 -605 -109 -605
-85 0 15 64 76 98 93 15 7 70 21 122 30 88 16 287 54 915 176 138 26 302 58
365 70 63 11 225 43 360 70 135 27 385 76 555 110 171 33 371 73 445 89 279
60 320 67 320 51z"/>
<path d="M3456 8465 c-33 -31 -33 -58 -1 -223 83 -420 83 -422 160 -422 56 0
79 29 72 87 -11 87 -100 510 -113 535 -27 52 -76 62 -118 23z"/>
<path d="M2843 8425 c-12 -8 -24 -27 -27 -43 -9 -39 50 -294 71 -309 32 -25
96 -14 113 18 14 26 -45 319 -68 337 -22 16 -63 15 -89 -3z"/>
<path d="M3165 8379 c-96 -27 -122 -61 -93 -123 15 -34 31 -38 102 -26 33 5
61 8 63 6 2 -1 -6 -32 -16 -67 -37 -120 -71 -261 -71 -295 0 -45 34 -68 85
-58 42 8 49 20 93 149 71 212 80 297 39 370 -39 69 -81 78 -202 44z"/>
<path d="M2484 8356 c-117 -53 -144 -193 -58 -294 43 -51 108 -70 175 -52 72
19 133 58 163 103 24 37 27 50 24 103 -4 72 -35 121 -91 148 -52 24 -150 20
-213 -8z m146 -120 c18 -22 8 -57 -22 -79 -23 -17 -33 -19 -55 -11 -23 8 -28
15 -28 44 0 27 6 37 25 47 33 17 65 16 80 -1z"/>
<path d="M2780 8000 c-30 -11 -77 -24 -105 -30 -58 -13 -85 -34 -85 -67 0 -33
36 -66 63 -59 54 16 180 37 204 34 55 -6 35 -27 -54 -54 -176 -53 -213 -89
-198 -190 8 -56 54 -111 98 -119 45 -8 355 50 378 71 29 26 25 78 -7 99 -29
19 -70 16 -216 -16 -106 -23 -109 -23 -102 -4 3 8 25 19 48 25 143 36 170 46
198 70 57 50 48 171 -17 229 -31 27 -43 31 -93 30 -31 0 -82 -9 -112 -19z"/>
<path d="M3788 7425 c-1 -1 -39 -6 -83 -9 -156 -12 -318 -44 -820 -162 -430
-101 -599 -204 -717 -437 -67 -134 -78 -345 -33 -652 92 -633 197 -873 431
-986 120 -58 204 -72 429 -73 105 0 242 5 305 13 282 32 685 126 886 207 247
99 377 267 415 538 18 132 9 212 -77 651 -82 422 -154 614 -276 741 -97 101
-205 149 -363 160 -38 3 -75 7 -82 9 -6 2 -13 2 -15 0z m208 -232 c34 -11 66
-34 104 -72 108 -110 174 -296 261 -736 72 -366 71 -502 -5 -659 -74 -154
-216 -236 -551 -316 -416 -100 -739 -132 -970 -96 -211 33 -296 99 -379 293
-53 124 -117 413 -142 643 -2 19 -6 51 -8 70 -35 251 4 417 124 537 81 79 138
106 375 172 167 47 603 142 790 171 142 23 323 20 401 -7z"/>
<path d="M3618 6715 c-14 -8 -37 -32 -50 -52 -19 -32 -23 -51 -23 -118 0 -134
56 -215 148 -215 87 0 133 65 131 185 -1 75 -29 158 -65 191 -26 23 -107 29
-141 9z"/>
<path d="M2916 6570 c-45 -40 -59 -85 -54 -173 4 -81 35 -158 73 -183 68 -44
150 -21 186 53 44 91 7 283 -62 318 -48 25 -103 19 -143 -15z"/>
<path d="M3696 6188 c-14 -13 -31 -47 -41 -81 -33 -119 -135 -185 -268 -173
-83 8 -119 25 -174 85 -34 37 -48 45 -77 45 -52 0 -76 -27 -76 -86 0 -45 4
-53 50 -102 84 -89 190 -124 340 -112 196 16 370 176 370 341 0 79 -73 128
-124 83z"/>
<path d="M4700 5239 c-436 -92 -473 -101 -502 -130 -37 -36 -36 -72 1 -110 39
-38 68 -38 267 6 87 20 226 49 308 66 201 41 216 49 216 125 0 44 -37 84 -77
83 -15 -1 -111 -19 -213 -40z"/>
<path d="M6425 7859 c-72 -20 -117 -104 -119 -224 -1 -90 19 -144 66 -178 33
-24 93 -26 137 -3 67 35 100 185 67 300 -26 88 -78 124 -151 105z"/>
<path d="M7375 7641 c-65 -27 -105 -113 -105 -225 0 -86 21 -133 71 -158 103
-53 197 27 207 178 6 93 -11 156 -50 189 -30 26 -82 32 -123 16z"/>
<path d="M6770 7469 c-37 -15 -60 -49 -60 -89 0 -80 72 -134 145 -110 54 18
75 46 75 99 0 65 -31 102 -90 107 -25 2 -56 -1 -70 -7z"/>
<path d="M6477 7192 c-33 -34 -36 -87 -8 -148 93 -205 429 -284 664 -156 94
50 124 125 76 186 -28 36 -63 33 -125 -8 -65 -44 -120 -59 -214 -58 -81 0
-167 27 -207 64 -12 11 -33 44 -47 74 -38 80 -90 97 -139 46z"/>
<path d="M5839 4935 c-14 -8 -39 -40 -56 -72 -74 -140 -41 -294 63 -296 97 -3
161 72 171 197 11 132 -20 186 -104 186 -26 -1 -60 -7 -74 -15z"/>
<path d="M6571 4771 c-67 -67 -90 -193 -52 -276 23 -51 41 -66 89 -72 72 -10
137 42 163 128 5 19 10 65 10 103 -1 109 -39 156 -128 156 -37 0 -49 -6 -82
-39z"/>
<path d="M5799 4344 c-21 -23 -24 -35 -24 -102 0 -66 4 -84 27 -124 38 -64
131 -144 198 -169 70 -27 181 -35 262 -19 158 30 287 154 288 276 0 48 -22 73
-71 80 -40 5 -59 -8 -84 -56 -9 -19 -29 -48 -44 -63 -130 -141 -411 -60 -411
118 0 76 -89 114 -141 59z"/>
<path d="M5220 8753 c-38 -14 -60 -47 -60 -88 0 -56 17 -76 158 -188 167 -132
175 -137 220 -137 54 0 82 34 82 98 0 39 -5 50 -39 83 -47 44 -226 189 -261
211 -29 19 -79 29 -100 21z"/>
<path d="M8689 8659 c-115 -75 -267 -199 -279 -230 -27 -65 46 -152 113 -135
27 6 286 197 326 240 12 13 25 42 28 65 5 35 2 44 -25 71 -44 43 -83 41 -163
-11z"/>
<path d="M8635 5483 c-141 -30 -240 -84 -312 -170 -68 -81 -299 -418 -481
-703 -19 -30 -50 -77 -68 -105 -141 -218 -245 -392 -278 -465 -26 -57 -47
-179 -66 -380 -6 -63 -15 -155 -20 -205 -5 -49 -10 -125 -10 -168 0 -69 3 -81
24 -102 29 -29 87 -46 130 -38 34 6 393 157 491 206 131 65 213 134 294 247
25 36 80 110 121 166 119 160 336 471 576 825 135 199 162 256 179 372 25 168
-127 377 -346 476 -50 22 -193 56 -211 50 -2 -1 -12 -3 -23 -6z m167 -247
c147 -71 224 -168 216 -271 -4 -47 -47 -154 -87 -214 -7 -11 -25 -1 -86 49
-89 72 -191 136 -352 218 -62 31 -113 60 -113 63 0 16 91 117 128 143 97 67
176 70 294 12z m-404 -373 c176 -93 254 -143 359 -231 l52 -44 -26 -39 c-14
-21 -27 -39 -30 -39 -2 0 -40 28 -86 63 -170 131 -395 267 -442 267 -19 0 34
79 53 80 8 0 62 -25 120 -57z m-205 -189 c29 -15 57 -31 64 -36 8 -6 -17 -58
-89 -181 -148 -254 -290 -487 -298 -487 -4 0 -15 9 -25 19 -9 11 -41 30 -71
42 -62 26 -67 8 47 187 44 67 115 182 160 255 116 188 141 227 151 227 5 0 32
-12 61 -26z m390 -252 c37 -29 67 -57 65 -61 -12 -28 -427 -619 -440 -627 -4
-3 -12 6 -17 19 -14 37 -68 73 -136 92 -33 10 -61 19 -63 20 -7 6 368 622 406
667 14 17 18 15 66 -19 28 -20 82 -61 119 -91z m-816 -553 c7 -7 29 -38 48
-70 39 -63 57 -73 157 -84 70 -9 98 -35 105 -98 5 -41 3 -46 -28 -69 -32 -23
-289 -143 -293 -136 -23 52 -38 66 -100 96 l-68 33 7 87 c14 188 23 225 55
255 30 26 31 27 67 12 20 -9 42 -20 50 -26z"/>
<path d="M2570 3090 c-40 -10 -80 -51 -81 -83 -5 -157 -3 -891 2 -916 4 -19
22 -48 39 -65 28 -28 36 -31 95 -30 42 1 72 7 90 18 49 32 56 69 55 274 l-2
187 122 5 122 5 28 33 c34 41 42 87 27 149 -17 69 -49 83 -193 83 l-111 0 -5
128 c-6 138 -15 173 -50 195 -30 19 -94 27 -138 17z"/>
<path d="M4504 3084 c-12 -3 -34 -19 -50 -35 l-29 -30 4 -547 c1 -300 7 -556
11 -567 5 -12 22 -34 39 -48 59 -50 154 -49 205 2 l29 30 1 196 1 197 99 3
c107 4 138 16 163 66 18 33 16 104 -3 140 -23 45 -71 61 -170 58 -46 -2 -85
-1 -87 1 -3 3 -7 103 -11 222 -4 120 -10 228 -15 240 -18 45 -57 71 -113 74
-29 1 -63 0 -74 -2z"/>
<path d="M5945 3072 c-16 -11 -66 -61 -110 -112 -113 -132 -257 -258 -438
-384 -131 -91 -158 -114 -168 -143 -30 -93 27 -183 116 -183 55 0 98 21 225
108 116 80 248 192 359 306 l84 86 28 -22 c15 -13 61 -50 101 -83 117 -96 324
-239 424 -291 53 -28 66 -31 109 -24 39 6 56 15 87 48 34 37 38 47 38 93 0 75
-21 102 -125 161 -189 108 -407 263 -525 374 -92 87 -143 103 -205 66z"/>
<path d="M1982 3040 c-45 -28 -62 -73 -62 -169 0 -67 -3 -80 -17 -85 -10 -2
-82 -8 -160 -12 l-143 -7 0 49 c0 27 -5 78 -10 113 -13 89 -38 114 -122 119
-72 4 -121 -19 -138 -64 -6 -15 -11 -196 -13 -438 -2 -387 -1 -413 17 -449 36
-73 42 -73 398 -48 342 24 391 31 426 64 50 46 50 46 45 457 -2 213 -9 399
-14 417 -6 18 -22 42 -36 53 -35 28 -125 28 -171 0z m-62 -620 l-5 -95 -95 -7
c-52 -4 -120 -11 -150 -16 -30 -6 -58 -8 -61 -6 -4 2 -7 53 -8 114 l-2 110 98
1 c54 1 125 4 158 8 37 3 62 2 65 -4 3 -5 3 -53 0 -105z"/>
<path d="M3703 3020 c-43 -26 -52 -47 -61 -132 l-7 -73 -115 4 c-134 4 -179
-9 -204 -58 -31 -59 -11 -143 45 -184 24 -17 48 -18 419 -18 357 1 396 3 424
19 83 47 82 176 -1 221 -13 6 -72 11 -145 11 -68 0 -128 4 -134 8 -6 4 -14 43
-17 87 -6 72 -10 83 -37 108 -25 22 -40 27 -83 27 -34 0 -63 -7 -84 -20z"/>
<path d="M8753 2971 c-74 -35 -70 18 -77 -901 -4 -545 -3 -837 4 -859 22 -77
95 -114 179 -91 50 13 86 58 97 120 11 69 6 1615 -6 1661 -20 75 -115 108
-197 70z"/>
<path d="M8349 2878 c-21 -5 -48 -21 -60 -35 -23 -24 -24 -31 -29 -241 l-5
-217 -80 -6 c-44 -3 -87 -9 -97 -13 -41 -18 -56 -151 -23 -203 23 -34 78 -55
139 -52 l51 3 2 -368 c1 -323 3 -370 18 -392 24 -36 78 -57 129 -49 66 11 95
32 116 83 6 13 10 307 12 715 2 626 0 695 -15 723 -24 46 -94 69 -158 52z"/>
<path d="M7610 2820 c-352 -5 -388 -7 -414 -23 -52 -34 -71 -125 -39 -189 24
-49 55 -61 171 -65 156 -6 152 -4 152 -64 0 -86 -20 -240 -46 -354 -33 -143
-101 -284 -192 -400 -91 -116 -100 -159 -45 -232 43 -59 131 -65 201 -14 35
25 136 170 182 261 27 54 34 61 44 48 6 -9 27 -37 46 -64 19 -26 40 -55 45
-63 47 -75 113 -154 137 -167 36 -19 102 -12 137 14 14 10 33 35 44 55 25 50
13 87 -68 197 -83 114 -201 293 -232 352 -24 46 -25 51 -14 130 6 46 14 131
17 189 l7 106 157 5 c183 6 223 19 247 77 28 66 -2 169 -54 189 -44 16 -76 17
-483 12z"/>
<path d="M3672 2485 c-229 -42 -355 -197 -331 -407 23 -210 220 -319 519 -287
166 18 269 67 342 163 43 58 63 126 61 214 -5 230 -275 374 -591 317z m181
-232 c24 -3 52 -19 73 -38 28 -26 34 -40 34 -72 0 -70 -39 -101 -148 -118 -97
-15 -182 38 -182 114 0 88 93 136 223 114z"/>
<path d="M6515 2190 c-88 -4 -255 -8 -372 -9 -116 0 -278 -6 -360 -11 -81 -6
-231 -14 -333 -18 -200 -9 -225 -16 -248 -68 -20 -42 -15 -107 11 -145 32 -48
81 -62 187 -55 47 3 184 9 306 12 l221 7 7 -73 c4 -39 6 -73 4 -75 -2 -2 -100
-6 -218 -10 -255 -7 -288 -15 -315 -75 -30 -67 -8 -148 51 -187 30 -19 77 -20
404 -4 113 6 269 13 348 15 l142 5 1 -182 c0 -114 5 -195 12 -217 35 -100 201
-109 264 -14 14 23 19 64 26 263 9 259 6 307 -24 345 -41 52 -67 58 -254 57
l-172 -1 -6 72 c-3 40 -4 75 -1 78 3 3 128 7 278 10 247 5 275 8 311 26 53 27
78 74 70 133 -10 80 -48 116 -130 124 -27 2 -122 1 -210 -3z"/>
<path d="M2027 1966 c-141 -32 -283 -114 -349 -201 -61 -80 -83 -153 -83 -270
0 -91 3 -106 31 -165 73 -151 230 -242 449 -260 290 -23 540 72 651 246 48 75
78 191 70 270 -10 95 -32 146 -92 212 -70 78 -129 116 -229 149 -70 22 -100
26 -235 29 -104 2 -174 -1 -213 -10z m326 -266 c21 -6 56 -27 77 -46 74 -67
76 -147 6 -219 -62 -63 -136 -89 -261 -89 -92 -1 -106 2 -167 31 -76 36 -108
75 -108 135 0 93 56 151 185 195 46 15 206 11 268 -7z"/>
<path d="M4558 1735 c-2 -1 -120 -5 -263 -9 -532 -14 -679 -22 -714 -40 -68
-35 -93 -135 -51 -204 31 -50 55 -55 230 -48 85 4 227 9 315 11 88 3 202 8
253 10 l92 5 0 -42 c3 -266 5 -304 23 -332 37 -55 142 -71 204 -31 49 32 53
57 53 304 1 243 -6 293 -43 336 -18 21 -88 50 -99 40z"/>
</g>
</svg>
